<svg xmlns="http://www.w3.org/2000/svg" viewBox="0 0 95.76 169.58"><defs><style>.cls-1{fill:#595959;}.cls-2{fill:#1e1e1e;}</style></defs><title>Asset 2</title><g id="Layer_2" data-name="Layer 2"><g id="Layer_1-2" data-name="Layer 1"><path d="M0,61.27c0-4.94,3.34-8.42,8-8.42s7.75,3.48,7.88,8.42c0,4.68-3.07,8.29-8,8.29C3.21,69.56,0,66,0,61.27Zm0,47.17C0,103.5,3.34,100,8,100s7.75,3.48,7.88,8.42c0,4.68-3.07,8.28-8,8.28C3.21,116.72,0,113.12,0,108.44ZM0,61.27c0-4.94,3.34-8.42,8-8.42s7.75,3.48,7.88,8.42c0,4.68-3.07,8.29-8,8.29C3.21,69.56,0,66,0,61.27m0,47.17C0,103.5,3.34,100,8,100s7.75,3.48,7.88,8.42c0,4.68-3.07,8.28-8,8.28-4.67,0-7.88-3.6-7.88-8.28"/><path class="cls-1" d="M35,151.26,72,122.63,35,95.16V76.55l60.81,37.21v17.75L35,169.58Z"/><path class="cls-2" d="M35,74.71,72,46.08,35,18.6V0L95.76,37.21V55L35,93Z"/></g></g></svg>